<svg width="32" height="32" viewBox="0 0 32 32" fill="none" xmlns="http://www.w3.org/2000/svg">
<g clip-path="url(#clip0_18649_13937)">
<rect width="32" height="32" fill="#1E5AEB"/>
<path d="M14.8097 11.8711L13.6353 14.9871L11.6627 9.81064V9.80915C12.633 8.06797 13.5612 7.62129 14.6477 7.2183C15.0652 7.08684 15.5085 7.0155 15.9543 7.00056C15.9747 6.99982 15.995 7.00006 16.0154 7.00031C16.0256 7.00044 16.0358 7.00056 16.0459 7.00056L16.0847 7.00048C16.1107 7.0004 16.1367 7.00031 16.1625 7.00056L16.1931 7.0004C16.2136 7.00023 16.2341 7.00006 16.2545 7.00056C16.2648 7.00075 16.2751 7.00066 16.2854 7.00056C16.2958 7.00047 16.3061 7.00038 16.3164 7.00056C17.1242 7.02932 17.9195 7.24183 18.5597 7.62092L18.5652 7.62458C18.9343 7.8727 19.8982 8.52058 20.5372 10.0904L24.4507 21.014V11.0644L22.9579 15.2695L21.1015 10.0108V10.0093C21.3801 8.79552 22.2312 7.78338 23.2383 7.29785C23.6138 7.12344 24.0112 7.03081 24.4101 7.00654C25.2143 6.95724 26.0244 7.18917 26.6721 7.62017C27.6763 8.35033 27.9624 9.24108 28 10.7795V21.5776C27.8778 23.3602 26.7496 24.3301 25.7391 24.7757C25.2582 24.9374 25.0553 24.977 24.5301 24.977C23.6436 25.0181 22.5552 24.6554 21.7872 23.7647C21.4676 23.4394 20.8195 21.8644 20.8195 21.8644L17.1071 11.9533C16.8855 11.3684 16.4128 11.0555 15.9454 11.0331C15.4757 11.0114 15.0112 11.2837 14.8097 11.8711Z" fill="white"/>
<path d="M10.8937 22.0224L10.8948 22.0235C10.6538 23.1978 9.76509 24.2091 8.75756 24.6954C8.42643 24.8493 8.0819 24.9393 7.73439 24.9763C6.89595 25.0659 6.043 24.84 5.32935 24.4105C4.31846 23.6429 4.03762 22.7933 4 21.2161V10.4542C4.11882 8.63531 5.288 7.66351 6.29889 7.21794C6.73915 7.05735 6.94438 7.01664 7.46583 7.01664C8.35269 7.01664 9.48239 7.34007 10.2091 8.27079C10.5342 8.59199 11.1768 10.1718 11.1768 10.1718L14.8892 20.0415C15.1201 20.5987 15.56 20.9061 16.0051 20.9531C16.4971 21.005 16.9959 20.7384 17.2272 20.1236L18.3591 17.0054L20.3339 22.2233C19.3663 23.9656 18.4399 24.3694 17.3516 24.7753C16.9355 24.9053 16.4945 24.9744 16.0516 24.9946C15.1182 25.0364 14.1755 24.837 13.4354 24.3694L13.4074 24.3509C13.0246 24.0985 12.0901 23.4825 11.4621 21.9429L7.59061 10.9815V20.9722L7.6841 20.7021L9.04138 16.7623L10.8937 22.0224Z" fill="white"/>
</g>
<defs>
<clipPath id="clip0_18649_13937">
<rect width="32" height="32" rx="6" fill="white"/>
</clipPath>
</defs>
</svg>
