<svg xmlns="http://www.w3.org/2000/svg" viewBox="0 0 16 16">
<path d="M13.6,2c0.5,0,1.1,0.1,1.5,0.4C15.8,3,16,3.5,16,4.6v7.2c-0.1,1.2-0.9,1.8-1.5,2.2C14.2,14,14.1,14,13.7,14 c-0.6,0-1.4-0.2-1.8-0.8c-0.2-0.2-0.7-1.3-0.7-1.3L8.7,5.4C8.6,5,8.2,4.8,7.9,4.7c-0.3,0-0.6,0.2-0.8,0.6L6.4,7.4L5.1,3.9 c0.7-1.1,1.3-1.4,2-1.7C7.3,2.1,7.7,2,7.9,2l0,0h0c0,0,0,0,0,0c0,0,0,0,0.1,0l0,0c0.6,0,1.2,0.1,1.6,0.4l0,0 c0.2,0.2,0.9,0.6,1.3,1.6l2.6,7.3V4.7l0,0.2l-0.9,2.6L11.4,4c0.2-0.8,0.8-1.5,1.4-1.8C13,2.2,13.3,2.1,13.6,2L13.6,2 C13.5,2,13.5,2,13.6,2L13.6,2L13.6,2z M8,11.3c0.3,0,0.7-0.2,0.8-0.6l0.8-2.1l1.3,3.4c-0.7,1.1-1.3,1.5-2,1.7C8.7,14,8.4,14,8.1,14 c-0.1,0-0.2,0-0.2,0c-0.5,0-1.1-0.2-1.5-0.4l0,0C6.1,13.4,5.4,13,5,12L2.4,4.7v6.6l1-2.8L4.6,12c-0.2,0.8-0.8,1.5-1.4,1.8 C3,13.9,2.7,14,2.5,14H2.4c-0.5,0-1.1-0.1-1.5-0.4C0.2,13.1,0,12.6,0,11.5V4.3c0.1-1.2,0.8-1.8,1.5-2.1C1.8,2.1,1.9,2,2.3,2 c0.6,0,1.3,0.2,1.8,0.8c0.2,0.2,0.7,1.3,0.7,1.3l2.5,6.6C7.4,11.1,7.7,11.3,8,11.3z"/>
</svg>
